<svg height="512" viewBox="0 0 59 53" width="512" xmlns="http://www.w3.org/2000/svg"><g id="Page-1" fill="none" fill-rule="evenodd"><g id="008---Submarine" fill-rule="nonzero"><path id="Shape" d="m38 9c-.5522847 0-1-.44771525-1-1v-5c0-1.65685425 1.3431458-3 3-3h1c.5522847 0 1 .44771525 1 1s-.4477153 1-1 1h-1c-.5522847 0-1 .44771525-1 1v5c0 .55228475-.4477153 1-1 1z" fill="#e57e25"/><path id="Shape" d="m43 10v11l-18-1 1.01-4.03.49-1.97 1.12-4.49c.2219235-.8899324 1.0228202-1.51331076 1.94-1.51h11.44c1.1032019.0032948 1.9967052.89679813 2 2z" fill="#f29c1f"/><path id="Shape" d="m37 15c0 .5522847-.4477153 1-1 1h-9.75c-.080928-.0001128-.1615343-.0101886-.24-.03l.49-1.97h9.5c.5522847 0 1 .4477153 1 1z" fill="#e57e25"/><path id="Shape" d="m8 44v5c0 2.209139-1.790861 4-4 4h-1c-.55228475 0-1-.4477153-1-1v-34c0-.5522847.44771525-1 1-1h1c2.209139 0 4 1.790861 4 4z" fill="#f29c1f"/><path id="Shape" d="m20.549 50h23.451c8.2842712 0 15-6.7157288 15-15s-6.7157288-15-15-15h-23.451c-3.5806944-.0000729-7.0432981 1.280757-9.762 3.611l-8.387 7.189c-.888551.7600107-1.40007692 1.8707527-1.4 3.04v2.32c-.00007692 1.1692473.511449 2.2799893 1.4 3.04l8.39 7.192c2.7183444 2.3284875 6.1797193 3.6081925 9.759 3.608z" fill="#f0c419"/><path id="Shape" d="m50.1 26.851c-.1976355-.0002517-.3907649-.0590605-.555-.169-1.6404254-1.0985886-3.570693-1.684109-5.545-1.682h-3c-.5522847 0-1-.4477153-1-1s.4477153-1 1-1h3c2.3701427-.0033148 4.6874757.6999623 6.656 2.02.3658622.2449086.5285083.7002855.4005849 1.1215585-.1279235.421273-.5163176.7093216-.9565849.7094415z" fill="#f3d55b"/><g fill="#3b97d3"><circle id="Oval" cx="47" cy="35" r="5"/><circle id="Oval" cx="32" cy="35" r="5"/><circle id="Oval" cx="17" cy="35" r="5"/></g><path id="Shape" d="m6 36h-5c-.55228475 0-1-.4477153-1-1s.44771525-1 1-1h5c.55228475 0 1 .4477153 1 1s-.44771525 1-1 1z" fill="#e57e25"/><path id="Shape" d="m37 25h-1c-.5522847 0-1-.4477153-1-1s.4477153-1 1-1h1c.5522847 0 1 .4477153 1 1s-.4477153 1-1 1z" fill="#f3d55b"/><circle id="Oval" cx="13" cy="13" fill="#3b97d3" r="3"/><circle id="Oval" cx="4" cy="11" fill="#3b97d3" r="2"/><circle id="Oval" cx="9" cy="7" fill="#2980ba" r="1"/></g></g></svg>